<mxfile host="app.diagrams.net" modified="2020-11-01T16:00:05.272Z" agent="5.0 (Windows NT 10.0; Win64; x64) AppleWebKit/537.36 (KHTML, like Gecko) Chrome/86.0.4240.111 Safari/537.36" etag="f4kqgZ4mUhnI6Hs1lIH9" version="13.8.8" type="github">
  <diagram id="C5RBs43oDa-KdzZeNtuy" name="Page-1">
    <mxGraphModel dx="1044" dy="576" grid="0" gridSize="10" guides="1" tooltips="1" connect="1" arrows="1" fold="1" page="1" pageScale="1" pageWidth="827" pageHeight="1169" math="0" shadow="0">
      <root>
        <mxCell id="WIyWlLk6GJQsqaUBKTNV-0" />
        <mxCell id="WIyWlLk6GJQsqaUBKTNV-1" parent="WIyWlLk6GJQsqaUBKTNV-0" />
        <mxCell id="WIyWlLk6GJQsqaUBKTNV-2" value="" style="rounded=0;html=1;jettySize=auto;orthogonalLoop=1;fontSize=11;endArrow=block;endFill=0;endSize=8;strokeWidth=1;shadow=0;labelBackgroundColor=none;edgeStyle=orthogonalEdgeStyle;" parent="WIyWlLk6GJQsqaUBKTNV-1" source="WIyWlLk6GJQsqaUBKTNV-3" target="WIyWlLk6GJQsqaUBKTNV-6" edge="1">
          <mxGeometry relative="1" as="geometry" />
        </mxCell>
        <mxCell id="WIyWlLk6GJQsqaUBKTNV-3" value="开始" style="rounded=1;whiteSpace=wrap;html=1;fontSize=12;glass=0;strokeWidth=1;shadow=0;" parent="WIyWlLk6GJQsqaUBKTNV-1" vertex="1">
          <mxGeometry x="270" y="80" width="120" height="40" as="geometry" />
        </mxCell>
        <mxCell id="V2EvNVE3QbB8JS8L3_zT-1" value="" style="edgeStyle=orthogonalEdgeStyle;rounded=0;orthogonalLoop=1;jettySize=auto;html=1;" edge="1" parent="WIyWlLk6GJQsqaUBKTNV-1" source="WIyWlLk6GJQsqaUBKTNV-6" target="V2EvNVE3QbB8JS8L3_zT-0">
          <mxGeometry relative="1" as="geometry" />
        </mxCell>
        <mxCell id="V2EvNVE3QbB8JS8L3_zT-3" value="" style="edgeStyle=orthogonalEdgeStyle;rounded=0;orthogonalLoop=1;jettySize=auto;html=1;" edge="1" parent="WIyWlLk6GJQsqaUBKTNV-1" source="WIyWlLk6GJQsqaUBKTNV-6">
          <mxGeometry relative="1" as="geometry">
            <mxPoint x="205" y="260" as="targetPoint" />
          </mxGeometry>
        </mxCell>
        <mxCell id="WIyWlLk6GJQsqaUBKTNV-6" value="是否按下键" style="rhombus;whiteSpace=wrap;html=1;shadow=0;fontFamily=Helvetica;fontSize=12;align=center;strokeWidth=1;spacing=6;spacingTop=-4;" parent="WIyWlLk6GJQsqaUBKTNV-1" vertex="1">
          <mxGeometry x="280" y="170" width="100" height="80" as="geometry" />
        </mxCell>
        <mxCell id="V2EvNVE3QbB8JS8L3_zT-30" value="" style="edgeStyle=orthogonalEdgeStyle;rounded=0;orthogonalLoop=1;jettySize=auto;html=1;entryX=1;entryY=0.5;entryDx=0;entryDy=0;" edge="1" parent="WIyWlLk6GJQsqaUBKTNV-1" source="V2EvNVE3QbB8JS8L3_zT-0" target="V2EvNVE3QbB8JS8L3_zT-4">
          <mxGeometry relative="1" as="geometry">
            <mxPoint x="460" y="380" as="targetPoint" />
          </mxGeometry>
        </mxCell>
        <mxCell id="V2EvNVE3QbB8JS8L3_zT-0" value="按下K2键&lt;br&gt;数字复位成0" style="whiteSpace=wrap;html=1;shadow=0;strokeWidth=1;spacing=6;spacingTop=-4;" vertex="1" parent="WIyWlLk6GJQsqaUBKTNV-1">
          <mxGeometry x="430" y="260" width="100" height="40" as="geometry" />
        </mxCell>
        <mxCell id="V2EvNVE3QbB8JS8L3_zT-13" value="" style="edgeStyle=orthogonalEdgeStyle;rounded=0;orthogonalLoop=1;jettySize=auto;html=1;" edge="1" parent="WIyWlLk6GJQsqaUBKTNV-1" source="V2EvNVE3QbB8JS8L3_zT-2" target="V2EvNVE3QbB8JS8L3_zT-12">
          <mxGeometry relative="1" as="geometry" />
        </mxCell>
        <mxCell id="V2EvNVE3QbB8JS8L3_zT-2" value="&lt;span&gt;按下K1键&lt;br&gt;&lt;br&gt;&lt;/span&gt;" style="whiteSpace=wrap;html=1;shadow=0;strokeWidth=1;spacing=6;spacingTop=-4;" vertex="1" parent="WIyWlLk6GJQsqaUBKTNV-1">
          <mxGeometry x="160" y="260" width="90" height="40" as="geometry" />
        </mxCell>
        <mxCell id="V2EvNVE3QbB8JS8L3_zT-4" value="做出相应的显示" style="rounded=0;whiteSpace=wrap;html=1;" vertex="1" parent="WIyWlLk6GJQsqaUBKTNV-1">
          <mxGeometry x="340" y="490" width="120" height="60" as="geometry" />
        </mxCell>
        <mxCell id="V2EvNVE3QbB8JS8L3_zT-7" value="" style="endArrow=classic;html=1;exitX=1;exitY=0.5;exitDx=0;exitDy=0;" edge="1" parent="WIyWlLk6GJQsqaUBKTNV-1" source="V2EvNVE3QbB8JS8L3_zT-0">
          <mxGeometry width="50" height="50" relative="1" as="geometry">
            <mxPoint x="440" y="230" as="sourcePoint" />
            <mxPoint x="330" y="140" as="targetPoint" />
            <Array as="points">
              <mxPoint x="550" y="280" />
              <mxPoint x="550" y="140" />
            </Array>
          </mxGeometry>
        </mxCell>
        <mxCell id="V2EvNVE3QbB8JS8L3_zT-8" value="" style="endArrow=classic;html=1;" edge="1" parent="WIyWlLk6GJQsqaUBKTNV-1" source="V2EvNVE3QbB8JS8L3_zT-2">
          <mxGeometry width="50" height="50" relative="1" as="geometry">
            <mxPoint x="290" y="330" as="sourcePoint" />
            <mxPoint x="330" y="140" as="targetPoint" />
            <Array as="points">
              <mxPoint x="80" y="280" />
              <mxPoint x="80" y="140" />
            </Array>
          </mxGeometry>
        </mxCell>
        <mxCell id="V2EvNVE3QbB8JS8L3_zT-17" value="" style="edgeStyle=orthogonalEdgeStyle;rounded=0;orthogonalLoop=1;jettySize=auto;html=1;" edge="1" parent="WIyWlLk6GJQsqaUBKTNV-1" source="V2EvNVE3QbB8JS8L3_zT-12" target="V2EvNVE3QbB8JS8L3_zT-16">
          <mxGeometry relative="1" as="geometry" />
        </mxCell>
        <mxCell id="V2EvNVE3QbB8JS8L3_zT-28" value="是" style="edgeLabel;html=1;align=center;verticalAlign=middle;resizable=0;points=[];" vertex="1" connectable="0" parent="V2EvNVE3QbB8JS8L3_zT-17">
          <mxGeometry x="-0.2743" y="-10" relative="1" as="geometry">
            <mxPoint as="offset" />
          </mxGeometry>
        </mxCell>
        <mxCell id="V2EvNVE3QbB8JS8L3_zT-20" value="" style="edgeStyle=orthogonalEdgeStyle;rounded=0;orthogonalLoop=1;jettySize=auto;html=1;" edge="1" parent="WIyWlLk6GJQsqaUBKTNV-1" source="V2EvNVE3QbB8JS8L3_zT-12" target="V2EvNVE3QbB8JS8L3_zT-19">
          <mxGeometry relative="1" as="geometry" />
        </mxCell>
        <mxCell id="V2EvNVE3QbB8JS8L3_zT-27" value="否" style="edgeLabel;html=1;align=center;verticalAlign=middle;resizable=0;points=[];" vertex="1" connectable="0" parent="V2EvNVE3QbB8JS8L3_zT-20">
          <mxGeometry x="-0.2117" y="7" relative="1" as="geometry">
            <mxPoint x="-10" y="6" as="offset" />
          </mxGeometry>
        </mxCell>
        <mxCell id="V2EvNVE3QbB8JS8L3_zT-12" value="是否&amp;gt;0FH" style="rhombus;whiteSpace=wrap;html=1;shadow=0;strokeWidth=1;spacing=6;spacingTop=-4;" vertex="1" parent="WIyWlLk6GJQsqaUBKTNV-1">
          <mxGeometry x="165" y="330" width="80" height="80" as="geometry" />
        </mxCell>
        <mxCell id="V2EvNVE3QbB8JS8L3_zT-22" value="" style="edgeStyle=orthogonalEdgeStyle;rounded=0;orthogonalLoop=1;jettySize=auto;html=1;entryX=0;entryY=0.75;entryDx=0;entryDy=0;" edge="1" parent="WIyWlLk6GJQsqaUBKTNV-1" source="V2EvNVE3QbB8JS8L3_zT-16" target="V2EvNVE3QbB8JS8L3_zT-4">
          <mxGeometry relative="1" as="geometry">
            <mxPoint x="275" y="530" as="targetPoint" />
          </mxGeometry>
        </mxCell>
        <mxCell id="V2EvNVE3QbB8JS8L3_zT-16" value="数字=0" style="whiteSpace=wrap;html=1;shadow=0;strokeWidth=1;spacing=6;spacingTop=-4;" vertex="1" parent="WIyWlLk6GJQsqaUBKTNV-1">
          <mxGeometry x="250" y="415" width="50" height="35" as="geometry" />
        </mxCell>
        <mxCell id="V2EvNVE3QbB8JS8L3_zT-24" value="" style="edgeStyle=orthogonalEdgeStyle;rounded=0;orthogonalLoop=1;jettySize=auto;html=1;entryX=0;entryY=0.75;entryDx=0;entryDy=0;" edge="1" parent="WIyWlLk6GJQsqaUBKTNV-1" source="V2EvNVE3QbB8JS8L3_zT-19" target="V2EvNVE3QbB8JS8L3_zT-4">
          <mxGeometry relative="1" as="geometry">
            <mxPoint x="132.5" y="530" as="targetPoint" />
            <Array as="points">
              <mxPoint x="132" y="535" />
            </Array>
          </mxGeometry>
        </mxCell>
        <mxCell id="V2EvNVE3QbB8JS8L3_zT-19" value="&lt;span&gt;数字++&lt;/span&gt;" style="whiteSpace=wrap;html=1;shadow=0;strokeWidth=1;spacing=6;spacingTop=-4;" vertex="1" parent="WIyWlLk6GJQsqaUBKTNV-1">
          <mxGeometry x="105" y="420" width="55" height="30" as="geometry" />
        </mxCell>
      </root>
    </mxGraphModel>
  </diagram>
</mxfile>
